<?xml version="1.0" standalone="no"?><!-- Generator: Gravit.io --><svg xmlns="http://www.w3.org/2000/svg" xmlns:xlink="http://www.w3.org/1999/xlink" style="isolation:isolate" viewBox="0 0 1300 525" width="1300" height="525"><defs><clipPath id="_clipPath_8YKZGbdH5wiNOGBOxx90Ittj2JXjtkzn"><rect width="1300" height="525"/></clipPath></defs><g clip-path="url(#_clipPath_8YKZGbdH5wiNOGBOxx90Ittj2JXjtkzn)"><rect x="0" y="0" width="1300" height="525" transform="matrix(1,0,0,1,0,0)" fill="rgb(78,77,78)"/><rect x="1025" y="50" width="100" height="425" transform="matrix(1,0,0,1,0,0)" fill="rgb(145,145,145)"/><rect x="1150" y="50" width="100" height="425" transform="matrix(1,0,0,1,0,0)" fill="rgb(200,200,200)"/><rect x="275" y="50" width="100" height="425" transform="matrix(1,0,0,1,0,0)" fill="rgb(232,102,100)"/><rect x="400" y="50" width="100" height="425" transform="matrix(1,0,0,1,0,0)" fill="rgb(121,249,192)"/><rect x="525" y="50" width="100" height="425" transform="matrix(1,0,0,1,0,0)" fill="rgb(241,186,71)"/><rect x="900" y="50" width="100" height="425" transform="matrix(1,0,0,1,0,0)" fill="rgb(97,215,252)"/><rect x="650" y="50" width="100" height="425" transform="matrix(1,0,0,1,0,0)" fill="rgb(97,215,252)"/><rect x="775" y="50" width="100" height="425" transform="matrix(1,0,0,1,0,0)" fill="rgb(219,93,149)"/><rect x="150" y="50" width="100" height="425" transform="matrix(1,0,0,1,0,0)" fill="rgb(74,75,74)"/></g></svg>