<?xml version="1.0" standalone="no"?><!-- Generator: Gravit.io --><svg xmlns="http://www.w3.org/2000/svg" xmlns:xlink="http://www.w3.org/1999/xlink" style="isolation:isolate" viewBox="442.5 42.5 1515 515" width="1515" height="515"><rect x="450" y="50" width="1500" height="500" transform="matrix(1,0,0,1,0,0)" fill="rgb(238,238,238)"/><rect x="1750" y="150" width="100" height="300" transform="matrix(1,0,0,1,0,0)" fill="rgb(215,215,215)"/><rect x="700" y="150" width="100" height="300" transform="matrix(1,0,0,1,0,0)" fill="rgb(132,132,132)"/><rect x="550" y="150" width="100" height="300" transform="matrix(1,0,0,1,0,0)" fill="rgb(68,68,68)"/><rect x="850" y="150" width="100" height="300" transform="matrix(1,0,0,1,0,0)" fill="rgb(214,10,17)"/><rect x="1000" y="150" width="100" height="300" transform="matrix(1,0,0,1,0,0)" fill="rgb(82,161,85)"/><rect x="1150" y="150" width="100" height="300" transform="matrix(1,0,0,1,0,0)" fill="rgb(247,167,72)"/><rect x="1600" y="150" width="100" height="300" transform="matrix(1,0,0,1,0,0)" fill="rgb(78,176,251)"/><rect x="1300" y="150" width="100" height="300" transform="matrix(1,0,0,1,0,0)" fill="rgb(65,120,238)"/><rect x="1450" y="150" width="100" height="300" transform="matrix(1,0,0,1,0,0)" fill="rgb(208,67,131)"/></svg>